<?xml version="1.0" encoding="utf-8"?>
<!-- Generator: Adobe Illustrator 24.0.0, SVG Export Plug-In . SVG Version: 6.00 Build 0)  -->
<svg version="1.1" xmlns="http://www.w3.org/2000/svg" xmlns:xlink="http://www.w3.org/1999/xlink" x="0px" y="0px"
	 viewBox="0 0 500 500" style="enable-background:new 0 0 500 500;" xml:space="preserve">
<style type="text/css">
	.st0{opacity:0.1;fill:#FFFFFF;}
	.st1{fill:#DFEAF7;}
	.st2{fill:#002D53;}
	.st3{fill:#FFB3AE;}
	.st4{fill:#FF7A72;}
	.st5{fill:#FFB042;}
	.st6{fill:#3D71F2;}
	.st7{fill:#D18C7E;}
	.st8{fill:#40C1B0;}
	.st9{fill:#FF828A;}
	.st10{fill:#FFFFFF;}
	.st11{fill:#BC7F72;}
	.st12{fill:#F1F3F6;}
	.st13{fill:#004072;}
	.st14{fill:#004070;}
	.st15{fill:#FFB0B3;}
	.st16{fill:#6190E5;}
</style>
<g id="BACKGROUND">
	<rect class="st0" width="500" height="500"/>
</g>
<g id="OBJECTS">
	<g>
		<g>
			<path class="st1" d="M439.7,190.5c0.4,13.5-13.1,26.5-28.1,35.3c-5.2,3.1-10.7,5.7-15.8,7.6c-16.4,6.1-30.2,5.7-40.4,5.3
				c-0.2,0-0.3,0-0.4,0c-0.3,0-0.7,0-1,0c-16.9-0.7-34-4.3-49-12.2c-0.4-0.2-0.8-0.4-1.2-0.6c-12.9-6.9-25.9-16.8-27.1-32.6
				c-0.6-7.8,1.8-15.6,6.5-21.9c5-6.7,12.4-10.5,19-15.3c4.7-3.4,6.8-8.4,8.9-13.5c1.5-3.6,3.2-7.1,5.1-10.5
				c1.1-1.8,2.2-3.6,3.4-5.4c8.4-12.3,22.4-21.3,37.2-23.4c15.4-2.2,30.1,5,40.2,16.6c6.1,7,10.3,15.6,12.1,24.7
				c1.5,7.4,0,16.7,5.7,22.5c6.7,6.7,16.3,4.7,21.8,13.1C439.6,184.3,439.7,188.7,439.7,190.5z"/>
		</g>
		<g>
			<g>
				<path class="st2" d="M385.4,163.6c13.7-11.7,17.8-33.2,8.4-47c-5.4-7.9-13.7-11.1-17.8-12.3c-1.7-2.5-6-8-13.3-10
					c-12.7-3.5-23.8,6.6-25.3,8c-14.6,13.4-20.1,46.1-0.2,62C350.2,174.8,371.3,175.7,385.4,163.6z"/>
			</g>
			<g>
				<g>
					<rect x="352.2" y="144.1" class="st3" width="15.7" height="19.4"/>
				</g>
				<g>
					<path class="st4" d="M367.9,144.1v9.3c-8.3,0.6-13-0.5-15.7-2.1v-7.2H367.9z"/>
				</g>
				<g>
					<path class="st3" d="M383.4,132.5c-1.5,4-5.1,6.3-8.1,5.2c-3-1.1-4.2-5.3-2.7-9.3c1.5-4,5.1-6.3,8.1-5.2
						C383.7,124.4,384.9,128.5,383.4,132.5z"/>
				</g>
				<g>
					<path class="st3" d="M339.2,132.5c1.5,4,5.1,6.3,8.1,5.2c3-1.1,4.2-5.3,2.7-9.3c-1.5-4-5.1-6.3-8.1-5.2
						C338.9,124.4,337.7,128.5,339.2,132.5z"/>
				</g>
				<g>
					<path class="st3" d="M375.9,128.8c2.5,6.9-5.4,20.8-15.6,20.8c-8.6,0-15.6-9.3-15.6-20.8c0-12.5,12.6-22.3,15.6-20.8
						c1.2,0.6,0.2,2.7,1.3,6.3C364.2,122.8,373.8,122.9,375.9,128.8z"/>
				</g>
			</g>
			<g>
				<path class="st5" d="M404.1,217.9h-89.6v-17.5c0-24.7,20.1-44.8,44.8-44.8l0,0c24.7,0,44.8,20.1,44.8,44.8V217.9z"/>
			</g>
		</g>
		<g>
			<g>
				<g>
					<rect x="392.8" y="190.1" class="st6" width="24.7" height="28.1"/>
				</g>
				<g>
					<path class="st6" d="M425.3,204.2c0,2.4-2,4.4-4.4,4.4c-1.4,0-2.6-0.6-3.4-1.6v6c1.1,0.4,2.2,0.6,3.4,0.6
						c5.2,0,9.4-4.2,9.4-9.4c0-5.2-4.2-9.4-9.4-9.4c-1.2,0-2.4,0.2-3.4,0.6v6c0.8-1,2-1.6,3.4-1.6
						C423.3,199.8,425.3,201.8,425.3,204.2z"/>
				</g>
			</g>
			<g>
				<rect x="285.1" y="218.2" class="st7" width="150.4" height="7.6"/>
			</g>
			<g>
				<g>
					<path class="st8" d="M310.9,200.9c-0.5-13.3-0.3-30.1,4.1-31.1c0.2,0,0.7-0.1,1.2,0.1C319.7,171.8,315.6,186.8,310.9,200.9z"/>
				</g>
				<g>
					<path class="st8" d="M310.9,200.9c-6.5-11.4-9.7-13.5-11.3-13c-0.6,0.2-1.1,0.8-1.2,1.3C297.2,192.9,308,199.2,310.9,200.9z"/>
				</g>
				<g>
					<path class="st8" d="M310.9,200.9c0,0,6.1-17.5,10.3-16.5C325.4,185.5,310.9,200.9,310.9,200.9z"/>
				</g>
				<g>
					<polygon class="st9" points="301.3,217.9 318,217.9 319.4,197.6 299.9,197.6 					"/>
				</g>
			</g>
			<g>
				<g>
					<path class="st10" d="M393.5,214.4c0,2.1-1.7,3.8-3.8,3.8h-60.9c-2.1,0-3.8-1.7-3.8-3.8v-38c0-2.1,1.7-3.8,3.8-3.8h60.9
						c2.1,0,3.8,1.7,3.8,3.8V214.4z"/>
				</g>
				<g>
					<circle class="st1" cx="359.3" cy="196.8" r="5.3"/>
				</g>
			</g>
			<g>
				<path class="st11" d="M411.7,225.8c-5.2,3.1-10.7,5.7-15.8,7.6c-16.4,6.1-30.2,5.7-40.4,5.3c-0.2,0-0.3,0-0.4,0
					c-0.3,0-0.7,0-1,0c-16.9-0.7-34-4.3-49-12.2c-0.4-0.2-0.8-0.4-1.2-0.6H411.7z"/>
			</g>
		</g>
	</g>
	<g>
		<g>
			<g>
				<path class="st1" d="M437.5,385.6c-3.3,5.7-7.3,11.2-11.9,16.5l0,0c-0.1,0.1-0.1,0.1-0.2,0.2c-9.3,10.4-22.8,16.1-36.8,15.9
					l-53.8-0.7c0,0-17.2-5-34.4-15.4c0,0,0,0,0,0c-9.2-5.6-18.4-12.7-24.9-21.4c-5.5-7.4-9.1-16-9.1-25.7c0,0-2.8-34.5,55.7-36.5
					c26.7-3.1,22.2-34.9,79.5-33.7c2,0,3.9,0.2,5.7,0.4c3.1,0.4,6.1,1.1,8.9,1.9c14.9,4.8,25.3,16.6,30.4,31.7
					c1,2.9,1.7,5.8,2.3,8.9C452.2,345.4,448.8,366.3,437.5,385.6z"/>
			</g>
			<g>
				<g>
					<path class="st12" d="M448.9,327.6h-41.5v-42.5c3.1,0.4,6.1,1.1,8.9,2c14.9,4.8,25.3,16.6,30.4,31.6
						C447.6,321.6,448.3,324.5,448.9,327.6z"/>
				</g>
				<g>
					<path class="st1" d="M446.6,318.7h-30.4v-31.6C431.2,291.9,441.6,303.7,446.6,318.7z"/>
				</g>
			</g>
		</g>
		<g>
			<g>
				<path class="st2" d="M428.8,380.6h-24.7c0-5.5,0.1-11,0.1-16.4c-0.5-0.3-0.9-0.6-1.3-1c-4.9-4.8,0.3-16.7,0.9-18
					c1.1,1.6,2.2,3.2,3.2,4.8h6.7c0.9-1.6,1.8-3.2,2.7-4.8c0.7,1.5,1.4,3.2,2,5.1c1.7,5.5,1.9,10.4,1.8,14.1
					C422.3,364.5,423.7,365.1,428.8,380.6z"/>
			</g>
			<g>
				<path class="st10" d="M406,356.8c0,0.7-0.1,1.3-0.2,1.3c-0.1,0-0.2-0.6-0.2-1.3c0-0.7,0.1-1.3,0.2-1.3
					C405.9,355.5,406,356.1,406,356.8z"/>
			</g>
			<g>
				<path class="st10" d="M412.6,356.8c0,0.7-0.1,1.3-0.2,1.3s-0.2-0.6-0.2-1.3c0-0.7,0.1-1.3,0.2-1.3S412.6,356.1,412.6,356.8z"/>
			</g>
		</g>
		<g>
			<g>
				<g>
					<polygon class="st2" points="337,380.6 321.8,380.6 327.7,356.6 342.9,356.6 					"/>
				</g>
				<g>
					<g>
						<path class="st10" d="M373.3,367c0.2,1.6-1,2.9-2.6,2.9h-78.4c-1.6,0-3.1-1.3-3.2-2.9l-5.2-48.8c-0.2-1.6,1-2.9,2.6-2.9h78.4
							c1.6,0,3.1,1.3,3.2,2.9L373.3,367z"/>
					</g>
					<g>
						<path class="st2" d="M373.3,367c0.2,1.6-1,2.9-2.6,2.9h-78.4c-1.6,0-3.1-1.3-3.2-2.9l-5.2-48.8c-0.2-1.6,1-2.9,2.6-2.9h78.4
							c1.6,0,3.1,1.3,3.2,2.9L373.3,367z"/>
					</g>
				</g>
				<g>
					<g>
						<path class="st13" d="M295.6,366.3c-1.6,0-3.1-1.3-3.2-2.9l-4.4-41.6c-0.2-1.6,1-2.9,2.6-2.9h71.1c1.6,0,3.1,1.3,3.2,2.9
							l4.4,41.6c0.2,1.6-1,2.9-2.6,2.9H295.6z"/>
					</g>
				</g>
				<g>
					<g>
						<polygon class="st9" points="313.3,331.9 296.3,331.9 295.9,329.3 312.9,329.3 						"/>
					</g>
					<g>
						<polygon class="st10" points="334.6,331.9 317.7,331.9 317.3,329.3 334.2,329.3 						"/>
					</g>
					<g>
						<polygon class="st10" points="314.5,339.6 297.6,339.6 297.2,337 314.1,337 						"/>
					</g>
					<g>
						<polygon class="st10" points="327.2,346.1 310.3,346.1 309.9,343.5 326.8,343.5 						"/>
					</g>
					<g>
						<polygon class="st10" points="337.3,353.6 320.4,353.6 320,350.9 336.9,350.9 						"/>
					</g>
					<g>
						<polygon class="st9" points="347.6,353.6 339.1,353.6 338.7,350.9 347.2,350.9 						"/>
					</g>
					<g>
						<polygon class="st9" points="346,346.1 329,346.1 328.6,343.5 345.6,343.5 						"/>
					</g>
				</g>
			</g>
			<g>
				<g>
					<path class="st11" d="M425.6,402L425.6,402c-0.1,0.1-0.1,0.1-0.2,0.2c-9.3,10.4-22.8,16.1-36.8,15.9l-53.8-0.7
						c0,0-17.2-5-34.4-15.4c0,0,0,0,0,0H425.6z"/>
				</g>
				<g>
					<path class="st7" d="M437.5,385.6c-3.3,5.7-7.3,11.2-12,16.5H300.4c-9.2-5.6-18.4-12.7-24.9-21.4H434L437.5,385.6z"/>
				</g>
			</g>
		</g>
		<g>
			<g>
				<g>
					<path class="st3" d="M384.8,346.1c-3.7,11-12.9,17.8-20.7,15.2c-7.8-2.6-11.1-13.6-7.5-24.6c3.7-11,12.9-17.8,20.7-15.2
						C385.1,324.1,388.5,335.1,384.8,346.1z"/>
				</g>
				<g>
					<rect x="369.9" y="348.7" class="st3" width="15.7" height="18.8"/>
				</g>
				<g>
					<path class="st2" d="M355.5,341.7c0,0-13-7.4-2.7-20.2c2.7-3.9,2.7,4,2.7,4s8.9-25.7,23.9-9.3c0,0,14.2,2.4,17.4,12
						c1,3.1,0.5,5.7-0.1,8.6c-0.2,1-3.8,18.2-16,20.4c-1.7,0.3-5.7,0.7-10.8-2.1C365.1,350.6,360.3,346.1,355.5,341.7z"/>
				</g>
				<g>
					<path class="st3" d="M368.3,348.2c0.3,3.4-0.6,6.3-2,6.4c-1.4,0.1-2.8-2.5-3.1-6c-0.3-3.4,0.6-6.3,2-6.4
						C366.6,342,368,344.7,368.3,348.2z"/>
				</g>
			</g>
			<g>
				<g>
					<path class="st6" d="M418.9,415.1c0,0-3.1,1.8-11.4,3.3c-9.5,1.7-25.9,3.1-52.4,1c-6.2-0.5-12.9-1.1-20.2-2c0,0,2.1-9.6,7.1-21
						c6.8-15.6,19.1-34.5,38.8-36.7c19.5-2.2,29.2,16.1,33.8,32.3C418.1,404.2,418.9,415.1,418.9,415.1z"/>
				</g>
				<g>
					<path class="st3" d="M418.9,415.1c0,0-3.1,1.8-11.4,3.3l-2.5-22.9l9.7-3.5C418.1,404.2,418.9,415.1,418.9,415.1z"/>
				</g>
				<g>
					<path class="st3" d="M358.1,402l-1,5.9c-1.2,6.6-7.3,11.2-13.9,10.5c-2.7-0.3-5.4-0.6-8.3-0.9c-9.4-1-27.4-27.5-27.4-27.5
						l-4.9,1c-1.6,5.7-2.8,7.1-3.7,7.1c-1.8-0.1-2.8-7-2.2-11.1c0.1-0.8,0.3-1.8,1.1-2.4c0.7-0.6,1.6-0.7,2.4-0.7
						c1,0.1,1.5,0.2,1.8,0.2c-0.3,0-1-0.2-1.8-0.2c-0.1,0-0.3,0-0.4,0c0.5-4.8,3.6-8.8,7.7-10.2c3.9-1.3,7.3,0.1,8.2,0.5
						c0,0,1.2-0.8,4.1-0.5c2.9,0.3,4.4,7.3,4.4,7.3l17.8,15.6C345.2,398.8,351,402,358.1,402z"/>
				</g>
				<g>
					<path class="st4" d="M301.9,384.8c-0.1,0-0.1,0-0.2,0c-0.3-0.1-0.9-0.2-1.6-0.2c-0.4,0.1-0.8-0.4-0.9-0.8
						c0-0.5,0.4-0.8,0.8-0.9c0.9,0,1.6,0.1,1.9,0.2c0.5,0.1,0.8,0.5,0.7,1C302.6,384.5,302.3,384.8,301.9,384.8z"/>
				</g>
				<g>
					<path class="st4" d="M337.5,405.5c-0.1,0-0.3,0-0.4-0.1c-0.4-0.2-0.6-0.7-0.3-1.1l4.4-8.2c0.2-0.4,0.7-0.6,1.1-0.3
						c0.4,0.2,0.6,0.7,0.3,1.1l-4.4,8.2C338.1,405.3,337.8,405.5,337.5,405.5z"/>
				</g>
				<g>
					<path class="st2" d="M404.9,396.2c-0.3,0-0.6-0.2-0.6-0.5l-3.2-15.1c-0.1-0.3,0.1-0.7,0.5-0.7c0.4-0.1,0.7,0.1,0.7,0.5
						l3.2,15.1c0.1,0.3-0.1,0.7-0.5,0.7C405,396.2,404.9,396.2,404.9,396.2z"/>
				</g>
				<g>
					<path class="st2" d="M358.1,402.7c-0.1,0-0.2,0-0.3-0.1c-0.3-0.2-0.4-0.5-0.3-0.9l5.8-10.7c0.2-0.3,0.5-0.4,0.9-0.3
						c0.3,0.2,0.4,0.5,0.3,0.9l-5.8,10.7C358.6,402.5,358.3,402.7,358.1,402.7z"/>
				</g>
			</g>
		</g>
	</g>
	<g>
		<g>
			<path class="st1" d="M240.6,380.6c-7,12.4-17.8,21.1-30.7,27c-0.1,0-0.1,0.1-0.2,0.1c-17.2,7.9-38,11-58,11.5
				c-19.3,0.6-37.9-1.2-52-3.1c-14.6-2-24.2-4.3-24.6-4.4c-1.1-0.3-2.1-0.7-2.1-0.7c-0.8-0.3-1.5-0.6-2.3-0.9c0,0,0,0-0.1,0
				l-0.2-0.1c-5.9-2.7-10.8-6.9-14.4-12.1c-4.3-6.2-6.6-13.8-6.2-21.7c0.4-8.2,2.3-17.3,7.1-26.2c9.9-18.5,32.5-36.2,55.4-37.8
				c8.7-0.6,20.9,0.4,33.3-7.2c2.8-1.8,3.8-2.4,6.4-4.1c3.8-2.4,23.2-14.7,46.3-12.1c5.7,0.6,24.6,3.6,38.1,19.5
				C255.1,329.9,251.3,361.7,240.6,380.6z"/>
		</g>
		<g>
			<g>
				<path class="st6" d="M215.4,396.7c-2,4.5-3.9,8.2-5.4,10.9c-0.1,0-0.1,0.1-0.2,0.1c-17.2,7.9-38,11-58,11.5
					c-6.6,0-12.6-0.2-18.1-0.7c-8.9-5.5-12.9-13.9-10.9-19.7c0.5-1.6,1.5-2.9,2.9-4c13.3-10.1,34.7-10.4,39.1-21.9
					c3-7.7,10.4-29.2,15-42.6c1.4-4.2,12-15.2,24.5-14.6c10.4,0.5,17.5,9.2,18.2,10.1C238.2,345.6,221.2,383.7,215.4,396.7z"/>
			</g>
			<g>
				<path class="st2" d="M195.8,402.8C195.8,402.8,195.8,402.8,195.8,402.8l-19-2.5c-0.3,0-0.6-0.4-0.5-0.7c0-0.3,0.3-0.6,0.7-0.5
					l18.9,2.5c0.3,0,0.6,0.4,0.5,0.7C196.4,402.6,196.2,402.8,195.8,402.8z"/>
			</g>
		</g>
		<g>
			<g>
				<path class="st8" d="M94.7,363.1c-0.6-16.6-0.4-37.6,5.1-38.8c0.2,0,0.8-0.2,1.5,0.2C105.8,326.7,100.6,345.4,94.7,363.1z"/>
			</g>
			<g>
				<path class="st8" d="M94.7,363.1c-8.1-14.3-12.1-16.9-14.1-16.2c-0.8,0.2-1.3,1-1.5,1.6C77.7,353.1,91.1,361,94.7,363.1z"/>
			</g>
			<g>
				<path class="st8" d="M94.7,363.1c0,0,7.6-21.9,12.8-20.6C112.8,343.8,94.7,363.1,94.7,363.1z"/>
			</g>
			<g>
				<polygon class="st9" points="104.7,386.5 83.9,386.5 82.1,361.1 106.5,361.1 				"/>
			</g>
		</g>
		<g>
			<g>
				<path class="st2" d="M151.8,313.2c0,0-8.9-1.7-6.9-10.7c1.9-9,7.8-8.9,7.8-8.9s9.6-14.8,27.6-5.8c18,9,4.8,21.8,14.8,30.3
					c10.1,8.6,24.9,47.9-7.4,44.2L151.8,313.2z"/>
			</g>
			<g>
				<path class="st14" d="M176.3,403c-0.9,1.5-4.1,6.8-9.6,10.1c-16.2,9.8-40.9-4.3-48.9-8.9c-7.4-4.2-12.9-8.7-16.4-12l-26.1,19.6
					c-1.5-0.5-3-1-4.4-1.7c0,0,0,0-0.1,0l-0.2-0.1c-5.9-2.7-10.8-6.9-14.4-12.1c7.7-8.6,26.8-28.8,37.5-29.4
					c13.6-0.7,48.6,17.9,48.6,17.9l38.5-1.3C180.9,388.2,180.8,395.5,176.3,403z"/>
			</g>
			<g>
				<g>
					<path class="st5" d="M171.1,334.4c0,0-15.4,9.4-14.7,13c0.7,3.6,0.7,3.6,0.7,3.6l-14.8,35.4c4.9,1.7,10.9,3.3,17.9,4.3
						c7.8,1.1,14.6,1.3,20.2,1c2.2-7,15.9-51.5,4-58.1c-1-0.5-2.2-0.9-3.7-0.8L171.1,334.4z"/>
				</g>
				<g>
					<path class="st10" d="M126.7,364.7l-11.6-4.7c-0.8-0.3-1.3-1.3-1.3-2.3v-29.7c0-1.6,1.2-2.8,2.3-2.3l11.6,4.7
						c0.8,0.3,1.3,1.3,1.3,2.3v29.7C129,364,127.8,365.1,126.7,364.7z"/>
				</g>
				<g>
					<path class="st3" d="M182.4,355.9c-6.2,7.9-12.4,13.3-17.6,17c-1.5,1.1-2.9,2-4.2,2.8c-8.4,5.2-11.7,5.1-13,5
						c-11.8-1.2-17.3-20.9-17.6-22l-8-0.5c0,0-5-6-4-7.9c1-2,3.6-2.8,3.6-2.8s-5.6-2.3-2.8-4.2c2.8-1.8,10.4,1.5,10.4,1.5
						s-0.8-4.7,3.5-2.5c4.3,2.2,6.3,14.7,6.3,14.7c3.8,7.9,10.5,7.3,17.1,3.6c10.1-5.6,20.1-18.2,20.1-18.2L182.4,355.9z"/>
				</g>
				<g>
					<path class="st5" d="M184.8,357.5c-2.2,2.4-4.9,5-8.2,7.6c-4.2,3.4-8.2,5.9-11.7,7.7c-2.4-3.5-6.1-8.7-8.7-12.5
						c6-3.9,9.8-8,12.2-11.1c2.9-3.8,4.6-7.1,8.5-8.2c2.3-0.7,5.6-0.6,7.7,1.2C188,344.9,188.6,351.5,184.8,357.5z"/>
				</g>
				<g>
					<path class="st3" d="M148.6,334.9c0,0-1-5.1-6.7-1c-5.7,4.1-8.2,5.9-7.1,7.7c1,1.8,7.4-2.1,7.4-2.1"/>
				</g>
				<g>
					<path class="st3" d="M142.3,347.4L142.3,347.4c-1.2,0.4-2,0.1-2.6-0.6c-1.4-1.7-1.3-5.4-1.3-5.4c0.7-0.3,1.4-0.6,2.1-1
						C141.1,342.8,141.7,345.1,142.3,347.4z"/>
				</g>
				<g>
					<path class="st3" d="M143.6,347.8c-0.5,0.2-1,0-1.4-0.4v0c-0.3-0.2-0.5-0.6-0.6-1c0,0,0,0,0,0c-1-2.1-1.1-5.9-1.1-5.9
						c1-1.3,1.9-2.5,2.9-3.8c0.8,1.6,1.6,3.2,2.4,4.8C145.9,341.4,146.5,346.9,143.6,347.8z"/>
				</g>
				<g>
					<path class="st3" d="M150.9,365.8l-6.7-1.3l2.7-1.5c-6.4-0.3-7.2-16.2-7.2-16.2c0.6,0.7,1.4,1,2.6,0.6c0.4,0.4,0.8,0.5,1.4,0.4
						c2.9-0.9,2.2-6.3,2.2-6.3l-3.9-0.7c0.1-0.4,0.2-0.8,0.4-1.3l6.2-4.5c0.6-0.1,1.1,0,1.6,0.1h0.1c2.2,0.5,3.6,2.6,3.6,4.8v0.4
						c-0.1,9.2-0.3,13.4,1.7,14.3c0.5,0.2,0.8,0.1,1,0.3C158.3,356.7,150.9,365.8,150.9,365.8z"/>
				</g>
				<g>
					<path class="st4" d="M150,348.1c-0.1,0-0.1,0-0.2,0c-0.7-0.2-2.5-0.7-3.4-2.5c-1-1.9-0.6-4.4,1-6.2c0.3-0.3,0.8-0.4,1.2,0
						c0.3,0.3,0.4,0.9,0,1.2c-1.1,1.2-1.5,2.9-0.8,4.2c0.6,1.1,1.8,1.5,2.3,1.6c0.5,0.1,0.7,0.6,0.6,1
						C150.7,347.9,150.4,348.1,150,348.1z"/>
				</g>
				<g>
					<path class="st4" d="M143.3,343.2c-0.4,0-0.7-0.1-1.1-0.2c-0.4-0.2-1.3-0.7-1.1-2.3c0.1-0.5,0.5-0.8,1-0.7
						c0.5,0.1,0.8,0.5,0.7,1c0,0.2,0,0.5,0.1,0.6c0.2,0.1,0.9,0.2,2.6-0.7c1.1-0.6,2-1.3,2-1.3c0.4-0.3,0.9-0.3,1.2,0.1
						c0.3,0.3,0.3,0.8-0.1,1.2L148,340l0.6,0.6c-0.1,0.1-1.1,0.9-2.3,1.6C145.1,342.8,144.1,343.2,143.3,343.2z"/>
				</g>
				<g>
					<path class="st4" d="M142.4,340.3c-0.1,0-0.2,0-0.4-0.1c-0.4-0.2-0.6-0.7-0.4-1.1c0.8-1.7,2.8-4,5.8-4.8
						c0.4-0.1,0.7-0.2,1.1-0.2c0.5,0,0.9,0.3,0.9,0.7c0,0.5-0.3,0.9-0.7,0.9c-0.3,0-0.6,0.1-0.9,0.1c-2.2,0.6-3.9,2.4-4.7,3.9
						C143,340.1,142.7,340.3,142.4,340.3z"/>
				</g>
				<g>
					<path class="st4" d="M156.2,361.2c-0.3,0-0.6-0.1-0.7-0.4c-0.2-0.4-0.1-0.9,0.3-1.2c0.1-0.1,9.4-5.7,14.5-14.2
						c0.2-0.4,0.8-0.5,1.1-0.3c0.4,0.2,0.5,0.7,0.3,1.1c-5.3,9-14.7,14.6-15.1,14.8C156.5,361.2,156.3,361.2,156.2,361.2z"/>
				</g>
			</g>
			<g>
				<g>
					<path class="st3" d="M180.8,332.7c-1.5,1.5-12.1,12-16.3,12c-0.2,0-0.7,0-0.9-0.3c-1.3-1.7,7.5-10,7.5-10
						c-0.2-0.7-0.3-1.4-0.5-2.1l-0.6-2.9c-0.6,0.6-1.4,1.3-2.5,2.1c-1.4,1-4.7,3.3-7.4,3.3c-5.1,0.1-8.4-10-8.4-10
						c-0.8-0.3-1.6-0.5-2.4-0.8c0.6-1.8,1.2-3.6,1.8-5.3c-2-5.1,0-15.5,0-15.5l0.9-3.3c1,1.6,4.4,6.6,11.1,9.2
						c6.1,2.3,11.4,1.3,13.4,0.8c0.7,3.4,1.3,6.7,2,10.1v0c0.5,2.4,0.9,4.8,1.4,7.2C180,329,180.4,330.8,180.8,332.7z"/>
				</g>
				<g>
					<path class="st3" d="M180.4,316.3c-1.1,3.3-3.5,5.4-5.4,4.8c-1.9-0.6-2.6-3.8-1.5-7.1c1.1-3.3,3.5-5.4,5.4-4.8
						C180.8,309.9,181.5,313,180.4,316.3z"/>
				</g>
				<g>
					<path class="st4" d="M179.7,327.1l-9.1,5.1l-0.6-2.9l8.3-9.4C178.7,322.4,179.2,324.8,179.7,327.1z"/>
				</g>
			</g>
		</g>
		<g>
			<path class="st6" d="M211.3,404.7l-1.5,3c-17.2,7.9-38,11-58,11.5c-19.3,0.6-37.9-1.2-52-3.1c1.1-4.1,5.4-13.8,23-17.3
				c2.3-0.5,4.8-0.8,7.6-1.1C160.4,395.3,211.3,404.7,211.3,404.7z"/>
		</g>
	</g>
	<g>
		<g>
			<path class="st1" d="M237.6,213.2c-2.7,5.6-7.3,10.6-13.2,14.8c-29.5,21.2-93,25.3-131.1,0c-6.3-4.2-11.9-9.1-16.5-14.9
				c-12.3-15.5-19.6-39.2-17.9-61.6c0.7-9.2,1.8-20.8,10.2-30.9c17-20.3,48.4-15.7,50-15.5c22,3.6,22.4,16.7,54.2,36.8
				c35.4,22.4,55.5,19.3,64.2,39.3C241.5,190.4,242.4,203.1,237.6,213.2z"/>
		</g>
		<g>
			<g>
				<g>
					<path class="st6" d="M124.2,220.4l7.4-33.1c1.9-8.3,7.4-15.3,15.1-19l21.8-10.4l22.3,9.3c9,3.7,15.5,11.7,17.5,21.2l6.7,32
						H124.2z"/>
				</g>
				<g>
					<path class="st15" d="M154.7,209.8c0,0,5.8-7.6,8.6-7.1c2.8,0.5,8,9.6,8,9.6h23.1l0.6-5.8c0,0,14.8,2.7,20,14h-57.8
						L154.7,209.8z"/>
				</g>
				<g>
					<path class="st2" d="M195,207.1c-0.4,0-0.7-0.3-0.7-0.6l-2-19.7c0-0.4,0.2-0.7,0.6-0.8c0.4,0,0.7,0.2,0.8,0.6l2,19.7
						C195.8,206.7,195.5,207.1,195,207.1C195.1,207.1,195,207.1,195,207.1z"/>
				</g>
			</g>
			<g>
				<g>
					<path class="st15" d="M158.1,154.6v15.3c0,0-1.1,9.5,5,8.6c6.1-0.9,12.5-17.7,12.5-17.7l-1-14.9L158.1,154.6z"/>
				</g>
				<g>
					<polygon class="st4" points="175.4,157.5 158.1,168.6 158.1,154.6 174.7,145.9 					"/>
				</g>
				<g>
					
						<ellipse transform="matrix(0.361 -0.9326 0.9326 0.361 -26.0302 238.1152)" class="st3" cx="160.7" cy="138.1" rx="22.8" ry="15.9"/>
				</g>
				<g>
					<path class="st2" d="M177.6,135.2c0,0-8.5-4.6-13.1-15.4c0,0-21.7,17-26.8,6.6c-5.1-10.4,7.5-18.6,9-11.5
						c0,0,11.7-18.9,30.9-6.3S177.6,135.2,177.6,135.2z"/>
				</g>
				<g>
					<path class="st3" d="M180.7,140.3c-1.2,3.4-3.9,5.6-5.9,4.9s-2.6-4.1-1.4-7.5c1.2-3.4,3.9-5.6,5.9-4.9S182,136.9,180.7,140.3z"
						/>
				</g>
			</g>
		</g>
		<g>
			<g>
				<g>
					<rect x="84.8" y="192.3" class="st16" width="20.7" height="28.1"/>
				</g>
				<g>
					<path class="st16" d="M77,206.4c0,2.4,2,4.4,4.4,4.4c1.4,0,2.6-0.6,3.4-1.6v6c-1.1,0.4-2.2,0.6-3.4,0.6c-5.2,0-9.4-4.2-9.4-9.4
						c0-5.2,4.2-9.4,9.4-9.4c1.2,0,2.4,0.2,3.4,0.6v6c-0.8-1-2-1.6-3.4-1.6C79,202,77,204,77,206.4z"/>
				</g>
			</g>
			<g>
				<path class="st12" d="M90.6,171.3c2.5-3.9,6.3-7,8.1-11.3c2.6-5.9,1.2-12.7,3.2-18.8c2.8-8.8,11.8-14,17.1-21.6
					c5.7-8.3,6.6-19.7,2.3-28.8c-2-4.2-5.1-7.9-9.3-9.8c-5-2.3-11-1.6-15.7,1.2c-4.7,2.8-8,7.6-9.5,12.9c-3.6,13,3.4,27,0.6,40.1
					c-1.7,7.8-6.6,14.7-8.3,22.5c-1.5,6.8-0.1,14.1,3.4,20.1c1,1.8,3.9,7.3,5.4,3.5c0.6-1.4,0.2-3.2,0.5-4.7
					C88.9,174.6,89.6,172.9,90.6,171.3z"/>
			</g>
		</g>
		<g>
			<g>
				<rect x="73.4" y="220.4" class="st7" width="161.9" height="7.6"/>
			</g>
			<g>
				<path class="st11" d="M224.3,228c-29.5,21.2-93,25.3-131.1,0H224.3z"/>
			</g>
		</g>
		<g>
			<g>
				<path class="st10" d="M160.4,216.7c0.5,2-0.8,3.7-2.9,3.7h-48c-2.1,0-4.2-1.6-4.7-3.7L96.2,181c-0.5-2,0.8-3.7,2.9-3.7h48
					c2.1,0,4.2,1.6,4.7,3.7L160.4,216.7z"/>
			</g>
			<g>
				<path class="st1" d="M133,199.4c0.5,2.9-1.4,5.3-4.3,5.3c-2.9,0-5.7-2.4-6.3-5.3c-0.5-2.9,1.4-5.3,4.3-5.3
					C129.7,194.1,132.5,196.5,133,199.4z"/>
			</g>
		</g>
	</g>
</g>
</svg>
