<svg width="93" height="14" viewBox="0 0 93 14" fill="none" xmlns="http://www.w3.org/2000/svg">
<path d="M0.137784 13.5V0.409091H8.8054V2.69105H2.90554V5.81037H8.23011V8.09233H2.90554V13.5H0.137784ZM10.6671 13.5V0.409091H15.8319C16.8205 0.409091 17.6642 0.585937 18.3631 0.93963C19.0662 1.28906 19.601 1.78551 19.9675 2.42898C20.3382 3.06818 20.5236 3.82031 20.5236 4.68537C20.5236 5.55469 20.3361 6.30256 19.9611 6.92898C19.5861 7.55114 19.0428 8.02841 18.3311 8.3608C17.6238 8.69318 16.7672 8.85938 15.7615 8.85938H12.3034V6.63494H15.3141C15.8425 6.63494 16.2814 6.5625 16.6309 6.41761C16.9803 6.27273 17.2402 6.0554 17.4107 5.76562C17.5854 5.47585 17.6728 5.11577 17.6728 4.68537C17.6728 4.25071 17.5854 3.88423 17.4107 3.58594C17.2402 3.28764 16.9782 3.06179 16.6245 2.90838C16.275 2.75071 15.834 2.67188 15.3013 2.67188H13.4348V13.5H10.6671ZM17.7367 7.54261L20.9902 13.5H17.9348L14.7516 7.54261H17.7367ZM22.4796 13.5V0.409091H31.3006V2.69105H25.2473V5.81037H30.8468V8.09233H25.2473V11.218H31.3262V13.5H22.4796ZM33.5011 13.5V0.409091H42.3221V2.69105H36.2688V5.81037H41.8683V8.09233H36.2688V11.218H42.3477V13.5H33.5011Z" fill="#121417"/>
<path d="M44.5225 13.5V0.409091H47.2903V11.218H52.9025V13.5H44.5225ZM57.3258 13.5H54.3599L58.8791 0.409091H62.4458L66.9586 13.5H63.9927L60.7136 3.40057H60.6113L57.3258 13.5ZM57.1404 8.3544H64.1461V10.5149H57.1404V8.3544ZM79.4838 0.409091V13.5H77.0932L71.3979 5.26065H71.302V13.5H68.5343V0.409091H70.9632L76.6138 8.64205H76.7289V0.409091H79.4838ZM86.4112 13.5H81.7706V0.409091H86.4496C87.7663 0.409091 88.8999 0.671165 89.8501 1.19531C90.8004 1.7152 91.5313 2.46307 92.0426 3.43892C92.5582 4.41477 92.8161 5.58239 92.8161 6.94176C92.8161 8.3054 92.5582 9.47727 92.0426 10.4574C91.5313 11.4375 90.7962 12.1896 89.8374 12.7138C88.8828 13.2379 87.7408 13.5 86.4112 13.5ZM84.5384 11.1286H86.2962C87.1143 11.1286 87.8026 10.9837 88.3608 10.6939C88.9233 10.3999 89.3452 9.94602 89.6264 9.33239C89.9119 8.71449 90.0547 7.91761 90.0547 6.94176C90.0547 5.97443 89.9119 5.18395 89.6264 4.57031C89.3452 3.95668 88.9254 3.50497 88.3672 3.2152C87.8089 2.92543 87.1207 2.78054 86.3026 2.78054H84.5384V11.1286Z" fill="#818181"/>
</svg>
